<!DOCTYPE svg PUBLIC "-//W3C//DTD SVG 1.1//EN" "http://www.w3.org/Graphics/SVG/1.1/DTD/svg11.dtd">

<!-- Uploaded to: SVG Repo, www.svgrepo.com, Transformed by: SVG Repo Mixer Tools -->
<svg fill="#ff5733" width="800px" height="800px" viewBox="0 0 24 24" xmlns="http://www.w3.org/2000/svg">

<g id="SVGRepo_bgCarrier" stroke-width="0"/>

<g id="SVGRepo_tracerCarrier" stroke-linecap="round" stroke-linejoin="round"/>

<g id="SVGRepo_iconCarrier">

<path d="M7,18V14a1,1,0,0,1,2,0v4a1,1,0,0,1-2,0Zm5,1a1,1,0,0,0,1-1V14a1,1,0,0,0-2,0v4A1,1,0,0,0,12,19Zm4,0a1,1,0,0,0,1-1V14a1,1,0,0,0-2,0v4A1,1,0,0,0,16,19ZM23,6v4a1,1,0,0,1-1,1H21V22a1,1,0,0,1-1,1H4a1,1,0,0,1-1-1V11H2a1,1,0,0,1-1-1V6A1,1,0,0,1,2,5H7V2A1,1,0,0,1,8,1h8a1,1,0,0,1,1,1V5h5A1,1,0,0,1,23,6ZM9,5h6V3H9Zm10,6H5V21H19Zm2-4H3V9H21Z"/>

</g>

</svg>